<mxfile host="app.diagrams.net" modified="2023-05-25T02:51:00.095Z" agent="Mozilla/5.0 (Windows NT 10.0; Win64; x64) AppleWebKit/537.36 (KHTML, like Gecko) Chrome/113.0.0.0 Safari/537.36 Edg/113.0.1774.50" etag="ni-3hK1MYxSHtuVtTs6Y" version="21.3.3" type="github">
  <diagram name="第 1 页" id="c4YKjx6kltpFNXYMclBw">
    <mxGraphModel dx="606" dy="657" grid="0" gridSize="10" guides="1" tooltips="1" connect="1" arrows="1" fold="1" page="0" pageScale="1" pageWidth="827" pageHeight="1169" math="0" shadow="0">
      <root>
        <mxCell id="0" />
        <mxCell id="1" parent="0" />
        <mxCell id="qQ9IWcd6AKw3ceX8Z4Lo-1" value="" style="endArrow=none;dashed=1;html=1;rounded=0;fontSize=12;startSize=8;endSize=8;curved=1;strokeWidth=1;" edge="1" parent="1">
          <mxGeometry width="50" height="50" relative="1" as="geometry">
            <mxPoint x="863" y="452" as="sourcePoint" />
            <mxPoint x="612" y="452" as="targetPoint" />
          </mxGeometry>
        </mxCell>
        <mxCell id="qQ9IWcd6AKw3ceX8Z4Lo-26" style="edgeStyle=none;curved=1;rounded=0;orthogonalLoop=1;jettySize=auto;html=1;exitX=0.5;exitY=1;exitDx=0;exitDy=0;fontSize=12;startSize=8;endSize=8;entryX=0.5;entryY=0;entryDx=0;entryDy=0;" edge="1" parent="1" source="qQ9IWcd6AKw3ceX8Z4Lo-2" target="qQ9IWcd6AKw3ceX8Z4Lo-6">
          <mxGeometry relative="1" as="geometry">
            <mxPoint x="732" y="398.1999816894531" as="targetPoint" />
          </mxGeometry>
        </mxCell>
        <mxCell id="qQ9IWcd6AKw3ceX8Z4Lo-2" value="&lt;font style=&quot;font-size: 18px;&quot;&gt;&lt;b&gt;modprobe&amp;nbsp; xx.ko&lt;/b&gt;&lt;/font&gt;" style="rounded=1;whiteSpace=wrap;html=1;" vertex="1" parent="1">
          <mxGeometry x="657" y="350" width="150" height="38" as="geometry" />
        </mxCell>
        <mxCell id="qQ9IWcd6AKw3ceX8Z4Lo-5" style="edgeStyle=none;curved=1;rounded=0;orthogonalLoop=1;jettySize=auto;html=1;exitX=0.5;exitY=1;exitDx=0;exitDy=0;entryX=0.5;entryY=0;entryDx=0;entryDy=0;fontSize=12;startSize=8;endSize=8;strokeWidth=1;" edge="1" parent="1" source="qQ9IWcd6AKw3ceX8Z4Lo-6" target="qQ9IWcd6AKw3ceX8Z4Lo-9">
          <mxGeometry relative="1" as="geometry" />
        </mxCell>
        <mxCell id="qQ9IWcd6AKw3ceX8Z4Lo-6" value="&lt;font style=&quot;font-size: 16px;&quot;&gt;kmod&lt;/font&gt;" style="rounded=1;whiteSpace=wrap;html=1;strokeWidth=1;" vertex="1" parent="1">
          <mxGeometry x="686" y="401" width="90" height="41" as="geometry" />
        </mxCell>
        <mxCell id="qQ9IWcd6AKw3ceX8Z4Lo-8" style="edgeStyle=none;curved=1;rounded=0;orthogonalLoop=1;jettySize=auto;html=1;exitX=0.5;exitY=1;exitDx=0;exitDy=0;fontSize=12;startSize=8;endSize=8;strokeWidth=1;" edge="1" parent="1" source="qQ9IWcd6AKw3ceX8Z4Lo-9" target="qQ9IWcd6AKw3ceX8Z4Lo-11">
          <mxGeometry relative="1" as="geometry" />
        </mxCell>
        <mxCell id="qQ9IWcd6AKw3ceX8Z4Lo-9" value="&lt;font style=&quot;font-size: 18px;&quot;&gt;finit_module&lt;/font&gt;" style="rounded=1;whiteSpace=wrap;html=1;fontSize=16;strokeWidth=1;" vertex="1" parent="1">
          <mxGeometry x="672" y="468" width="120" height="40" as="geometry" />
        </mxCell>
        <mxCell id="qQ9IWcd6AKw3ceX8Z4Lo-10" style="edgeStyle=none;curved=1;rounded=0;orthogonalLoop=1;jettySize=auto;html=1;exitX=0.5;exitY=1;exitDx=0;exitDy=0;entryX=0.5;entryY=0;entryDx=0;entryDy=0;fontSize=12;startSize=8;endSize=8;strokeWidth=1;" edge="1" parent="1" source="qQ9IWcd6AKw3ceX8Z4Lo-11" target="qQ9IWcd6AKw3ceX8Z4Lo-15">
          <mxGeometry relative="1" as="geometry">
            <mxPoint x="732" y="583" as="targetPoint" />
          </mxGeometry>
        </mxCell>
        <mxCell id="qQ9IWcd6AKw3ceX8Z4Lo-11" value="……" style="rounded=1;whiteSpace=wrap;html=1;fontSize=16;strokeWidth=1;" vertex="1" parent="1">
          <mxGeometry x="681" y="525" width="100" height="40" as="geometry" />
        </mxCell>
        <mxCell id="qQ9IWcd6AKw3ceX8Z4Lo-28" style="edgeStyle=none;curved=1;rounded=0;orthogonalLoop=1;jettySize=auto;html=1;exitX=0.5;exitY=1;exitDx=0;exitDy=0;entryX=0.5;entryY=0;entryDx=0;entryDy=0;fontSize=12;startSize=8;endSize=8;" edge="1" parent="1" source="qQ9IWcd6AKw3ceX8Z4Lo-15" target="qQ9IWcd6AKw3ceX8Z4Lo-27">
          <mxGeometry relative="1" as="geometry" />
        </mxCell>
        <mxCell id="qQ9IWcd6AKw3ceX8Z4Lo-15" value="&lt;b&gt;SHN_UNDEF&lt;/b&gt;: resolve_symbol_wait" style="rounded=1;whiteSpace=wrap;html=1;fontSize=16;" vertex="1" parent="1">
          <mxGeometry x="596" y="586" width="270" height="40" as="geometry" />
        </mxCell>
        <mxCell id="qQ9IWcd6AKw3ceX8Z4Lo-25" value="find_export_symbol_in_section" style="rounded=1;whiteSpace=wrap;html=1;fontSize=16;" vertex="1" parent="1">
          <mxGeometry x="612" y="700" width="240" height="40" as="geometry" />
        </mxCell>
        <mxCell id="qQ9IWcd6AKw3ceX8Z4Lo-29" style="edgeStyle=none;curved=1;rounded=0;orthogonalLoop=1;jettySize=auto;html=1;exitX=0.5;exitY=1;exitDx=0;exitDy=0;entryX=0.5;entryY=0;entryDx=0;entryDy=0;fontSize=12;startSize=8;endSize=8;" edge="1" parent="1" source="qQ9IWcd6AKw3ceX8Z4Lo-27" target="qQ9IWcd6AKw3ceX8Z4Lo-25">
          <mxGeometry relative="1" as="geometry" />
        </mxCell>
        <mxCell id="qQ9IWcd6AKw3ceX8Z4Lo-27" value="……" style="rounded=1;whiteSpace=wrap;html=1;fontSize=16;strokeWidth=1;" vertex="1" parent="1">
          <mxGeometry x="682" y="642" width="100" height="40" as="geometry" />
        </mxCell>
      </root>
    </mxGraphModel>
  </diagram>
</mxfile>
